<svg xmlns="http://www.w3.org/2000/svg" xmlns:svg="http://www.w3.org/2000/svg" id="svg6485" width="16" height="16" version="1.1" viewBox="0 0 16 16"><g id="layer1" transform="translate(0,-1036.3622)"><path id="path5659" d="m 8,1037.3622 c -3.86008,0 -7,3.1399 -7,7 0,3.8601 3.13992,7 7,7 3.86008,0 7,-3.1399 7,-7 0,-3.8601 -3.13992,-7 -7,-7 z m 0,1 c 3.31964,0 6,2.6804 6,6 0,3.3197 -2.68036,6 -6,6 -3.31964,0 -6,-2.6803 -6,-6 0,-3.3196 2.68036,-6 6,-6 z m -2.59961,2.5996 -0.80078,0.8027 2.59961,2.5977 -2.59961,2.5996 0.80078,0.8008 L 8,1045.163 l 2.59961,2.5996 0.80078,-0.8008 -2.59961,-2.5996 2.59961,-2.5977 -0.80078,-0.8027 L 8,1043.5614 Z" style="color:#000;font-style:normal;font-variant:normal;font-weight:400;font-stretch:normal;font-size:medium;line-height:normal;font-family:sans-serif;text-indent:0;text-align:start;text-decoration:none;text-decoration-line:none;text-decoration-style:solid;text-decoration-color:#000;letter-spacing:normal;word-spacing:normal;text-transform:none;direction:ltr;writing-mode:lr-tb;baseline-shift:baseline;text-anchor:start;white-space:normal;clip-rule:nonzero;display:inline;overflow:visible;visibility:visible;opacity:1;isolation:auto;mix-blend-mode:normal;color-interpolation:sRGB;color-interpolation-filters:linearRGB;solid-color:#000;solid-opacity:1;fill:#000;fill-opacity:1;fill-rule:nonzero;stroke:none;stroke-width:1.99999988;stroke-linecap:butt;stroke-linejoin:miter;stroke-miterlimit:4;stroke-dasharray:none;stroke-dashoffset:0;stroke-opacity:1;color-rendering:auto;image-rendering:auto;shape-rendering:auto;text-rendering:auto;enable-background:accumulate"/></g><style id="style5178" type="text/css"/><metadata/></svg>