<svg width="60" height="60" viewBox="0 0 60 60" fill="none" xmlns="http://www.w3.org/2000/svg">
<path d="M30 0C13.458 0 0 13.458 0 30C0 46.542 13.458 60 30 60C46.542 60 60 46.542 60 30C60 13.458 46.542 0 30 0ZM48 41C48 42.654 46.654 44 45 44H15C13.346 44 12 42.654 12 41V24.6C12 24.4026 12.0585 24.2096 12.168 24.0454C12.2775 23.8812 12.4332 23.753 12.6154 23.6771C12.7976 23.6012 12.9982 23.5809 13.1919 23.6188C13.3856 23.6567 13.5638 23.751 13.704 23.89L26.602 36.68C28.416 38.38 31.532 38.422 33.488 36.594L46.296 23.928C46.296 23.7634 46.3366 23.6012 46.4143 23.4561C46.4919 23.3109 46.6042 23.1871 46.7412 23.0958C46.8782 23.0045 47.0356 22.9484 47.1995 22.9325C47.3634 22.9166 47.5286 22.9414 47.6806 23.0047C47.8326 23.068 47.9666 23.1679 48.0707 23.2955C48.1748 23.423 48.2458 23.5743 48.2774 23.7359C48.309 23.8975 48.3002 24.0644 48.2518 24.2217C48.2034 24.3791 48.1169 24.5221 48 24.638V41ZM47.704 19.726L32.11 35.146C31.508 35.71 30.784 36 30 36C29.24 36 28.506 35.724 27.99 35.242L27.97 35.222L12.3 19.68C12.2045 19.5854 12.1291 19.4725 12.0783 19.3481C12.0274 19.2237 12.0022 19.0904 12.004 18.956C12.0181 18.1695 12.3395 17.4198 12.8995 16.8673C13.4594 16.3149 14.2134 16.0035 15 16H45C46.654 16 48 17.346 48 19C48.0009 19.2716 47.8945 19.5325 47.704 19.726V19.726Z" fill="#0A5C4A"/>
</svg>
