<?xml version="1.0" encoding="UTF-8"?><svg xmlns="http://www.w3.org/2000/svg" xmlns:xlink="http://www.w3.org/1999/xlink" version="1.1" id="Layer_1" x="0px" y="0px" viewBox="0 0 24 24" xml:space="preserve"><path id="base_color_3_" fill="#F47920" d="M12 0C5.383 0 0 5.383 0 12s5.383 12 12 12 12-5.383 12-12S18.617 0 12 0z"/><g id="light_foil_18_" fill="#FFF"><circle opacity="0.8" cx="12" cy="9" r="6"/><path opacity="0.8" d="M20.539 18.255C18.535 17.226 15.427 16 12 16s-6.535 1.226-8.539 2.255c-.425.219-.8.502-1.127.826C4.52 22.057 8.034 24 12 24s7.48-1.943 9.666-4.919a4.559 4.559 0 0 0-1.127-.826z"/></g><metadata><rdf:RDF xmlns:rdf="http://www.w3.org/1999/02/22-rdf-syntax-ns#" xmlns:rdfs="http://www.w3.org/2000/01/rdf-schema#" xmlns:dc="http://purl.org/dc/elements/1.1/"><rdf:Description about="https://iconscout.com/legal#licenses" dc:title="user,symbol,person" dc:description="user,symbol,person" dc:publisher="Iconscout" dc:date="2017-10-13" dc:format="image/svg+xml" dc:language="en"><dc:creator><rdf:Bag><rdf:li>Those Icons</rdf:li></rdf:Bag></dc:creator></rdf:Description></rdf:RDF></metadata></svg>