<svg xmlns="http://www.w3.org/2000/svg" width="60" height="60" fill="none" viewBox="0 0 60 60"><path fill="#0A5C4A" d="M30.0469 29.8406H29.9531C26.2312 29.8406 22.9531 28.8937 21.0125 30.6781C20.4853 31.1466 20.0652 31.7233 19.781 32.3688C19.4968 33.0143 19.3551 33.7135 19.3656 34.4187C19.3656 40.2062 24 40.9187 29.9562 40.9187H30.0469C36 40.9187 40.6375 40.2031 40.6375 34.4187C40.6375 33.0344 40.15 31.7437 38.9906 30.6781C37.0469 28.8937 33.7687 29.8406 30.0469 29.8406V29.8406ZM24.9781 37.75C23.8437 37.75 22.9281 36.475 22.9281 34.9062C22.9281 33.3375 23.8437 32.0687 24.9781 32.0687C26.1125 32.0687 27.0312 33.3375 27.0312 34.9062C27.0344 36.475 26.1156 37.75 24.9781 37.75ZM35.0187 37.75C33.8844 37.75 32.9656 36.475 32.9656 34.9062C32.9656 33.3375 33.8844 32.0687 35.0187 32.0687C36.15 32.0687 37.0687 33.3375 37.0687 34.9062C37.0719 36.475 36.1531 37.75 35.0187 37.75ZM30 0C13.4313 0 0 13.4313 0 30C0 46.5687 13.4313 60 30 60C46.5687 60 60 46.5687 60 30C60 13.4313 46.5687 0 30 0ZM32.7375 42.3094C32.2 42.3094 31.1312 42.3094 30 42.3156C28.8687 42.3094 27.8 42.3094 27.2625 42.3094C24.8875 42.3094 15.475 42.125 15.475 30.7812C15.475 28.175 16.3687 26.2656 17.8344 24.6719C17.6031 24.0969 17.5906 20.8219 18.8344 17.6844C18.8344 17.6844 21.6969 17.9969 26.025 20.9687C26.9281 20.7156 28.4656 20.5875 30 20.5875C31.5344 20.5875 33.0687 20.7156 33.9781 20.9656C38.3062 17.9937 41.1687 17.6812 41.1687 17.6812C42.4125 20.8187 42.4031 24.0969 42.1687 24.6687C43.6344 26.2625 44.5281 28.1719 44.5281 30.7781C44.525 42.1281 35.1125 42.3094 32.7375 42.3094V42.3094Z"/></svg>