<svg width="120" height="120" viewBox="0 0 120 120" fill="none" xmlns="http://www.w3.org/2000/svg">
<g clip-path="url(#clip0)">
<path d="M84.3625 41.5688C83.8419 40.2203 83.0446 38.9959 82.0219 37.9743C80.9993 36.9528 79.774 36.1567 78.425 35.6375C76.5675 34.9495 74.6057 34.5859 72.625 34.5625C69.3312 34.4125 68.3437 34.375 60 34.375C51.6562 34.375 50.6687 34.4125 47.3749 34.5625C45.3922 34.5852 43.4281 34.9488 41.5687 35.6375C40.2202 36.1581 38.9958 36.9555 37.9742 37.9781C36.9527 39.0007 36.1566 40.226 35.6374 41.575C34.9494 43.4325 34.5858 45.3944 34.5624 47.375C34.4124 50.6688 34.3749 51.6563 34.3749 60.0001C34.3749 68.3438 34.4124 69.3313 34.5624 72.6251C34.5851 74.6078 34.9487 76.5719 35.6374 78.4314C36.1581 79.7798 36.9554 81.0042 37.978 82.0258C39.0007 83.0474 40.2259 83.8434 41.5749 84.3626C43.4324 85.0506 45.3943 85.4142 47.3749 85.4376C50.6687 85.5876 51.6562 85.6251 60 85.6251C68.3437 85.6251 69.3312 85.5876 72.625 85.4376C74.6078 85.4149 76.5718 85.0513 78.4313 84.3626C79.7797 83.842 81.0042 83.0447 82.0257 82.022C83.0473 80.9994 83.8433 79.7741 84.3625 78.4251C85.0505 76.5676 85.4141 74.6057 85.4375 72.6251C85.5875 69.3313 85.625 68.3438 85.625 60.0001C85.625 51.6563 85.5875 50.6688 85.4375 47.375C85.4148 45.3923 85.0512 43.4282 84.3625 41.5688ZM60 76.0501C56.8256 76.0501 53.7225 75.1088 51.083 73.3452C48.4436 71.5816 46.3865 69.0749 45.1717 66.1421C43.9569 63.2094 43.639 59.9823 44.2583 56.8689C44.8776 53.7555 46.4062 50.8956 48.6509 48.651C50.8955 46.4063 53.7554 44.8777 56.8688 44.2584C59.9822 43.6391 63.2093 43.957 66.1421 45.1718C69.0748 46.3865 71.5815 48.4437 73.3451 51.0831C75.1087 53.7226 76.05 56.8257 76.05 60.0001C76.05 64.2568 74.359 68.3392 71.3491 71.3492C68.3391 74.3591 64.2567 76.0501 60 76.0501V76.0501ZM76.6813 47.0688C75.9396 47.0688 75.2146 46.8488 74.5979 46.4368C73.9812 46.0247 73.5005 45.4391 73.2167 44.7538C72.9329 44.0686 72.8586 43.3146 73.0033 42.5872C73.148 41.8598 73.5052 41.1916 74.0296 40.6671C74.5541 40.1427 75.2222 39.7855 75.9497 39.6408C76.6771 39.4961 77.4311 39.5704 78.1163 39.8542C78.8016 40.138 79.3872 40.6187 79.7993 41.2354C80.2113 41.8521 80.4313 42.5771 80.4313 43.3188C80.4313 44.3133 80.0362 45.2672 79.3329 45.9704C78.6297 46.6737 77.6758 47.0688 76.6813 47.0688V47.0688Z" fill="#0A5C4A"/>
<path d="M60 70.4157C65.7531 70.4157 70.4169 65.7519 70.4169 59.9989C70.4169 54.2458 65.7531 49.582 60 49.582C54.247 49.582 49.5832 54.2458 49.5832 59.9989C49.5832 65.7519 54.247 70.4157 60 70.4157Z" fill="#0A5C4A"/>
<path d="M60.0002 0C48.1332 0 36.5328 3.51895 26.6659 10.1118C16.7989 16.7048 9.10851 26.0755 4.56724 37.0391C0.0259665 48.0027 -1.16224 60.0667 1.15288 71.7056C3.468 83.3445 9.18246 94.0355 17.5736 102.427C25.9648 110.818 36.6558 116.532 48.2947 118.847C59.9336 121.163 71.9976 119.974 82.9612 115.433C93.9248 110.892 103.296 103.201 109.888 93.3345C116.481 83.4675 120 71.8671 120 60.0002C120 52.1208 118.448 44.3186 115.433 37.0391C112.418 29.7595 107.998 23.1452 102.427 17.5736C96.8551 12.0021 90.2408 7.58253 82.9612 4.56724C75.6817 1.55195 67.8795 0 60.0002 0V0ZM91.0627 72.8877C91.0091 75.4789 90.5167 78.0423 89.6065 80.469C88.8038 82.5445 87.5764 84.4294 86.0029 86.0029C84.4294 87.5764 82.5445 88.8038 80.469 89.6065C78.0423 90.5167 75.4789 91.0091 72.8877 91.0627C69.5502 91.2127 68.4877 91.2502 60.0002 91.2502C51.5126 91.2502 50.4501 91.2127 47.1126 91.0627C44.5214 91.0091 41.958 90.5167 39.5314 89.6065C37.4559 88.8038 35.5709 87.5764 33.9974 86.0029C32.4239 84.4294 31.1965 82.5445 30.3938 80.469C29.4836 78.0423 28.9912 75.4789 28.9376 72.8877C28.7876 69.5502 28.7501 68.4877 28.7501 60.0002C28.7501 51.5126 28.7876 50.4501 28.9376 47.1126C28.9912 44.5214 29.4836 41.958 30.3938 39.5314C31.1965 37.4559 32.4239 35.5709 33.9974 33.9974C35.5709 32.4239 37.4559 31.1965 39.5314 30.3938C41.958 29.4836 44.5214 28.9912 47.1126 28.9376C50.4501 28.7876 51.5126 28.7501 60.0002 28.7501C68.4877 28.7501 69.5502 28.7876 72.8877 28.9376C75.4789 28.9912 78.0423 29.4836 80.469 30.3938C82.5445 31.1965 84.4294 32.4239 86.0029 33.9974C87.5764 35.5709 88.8038 37.4559 89.6065 39.5314C90.5167 41.958 91.0091 44.5214 91.0627 47.1126C91.2127 50.4501 91.2502 51.5126 91.2502 60.0002C91.2502 68.4877 91.2127 69.5502 91.0627 72.8877V72.8877Z" fill="#0A5C4A"/>
</g>
<defs>
<clipPath id="clip0">
<rect width="120" height="120" fill="white"/>
</clipPath>
</defs>
</svg>
