<svg xmlns="http://www.w3.org/2000/svg" width="120" height="120" fill="none" viewBox="0 0 120 120"><g clip-path="url(#clip0)"><path fill="url(#paint0_linear)" d="M59.9999 0C26.8627 0 6.10352e-05 26.8626 6.10352e-05 59.9999C6.10352e-05 93.1371 26.8627 120 59.9999 120C93.1372 120 120 93.1371 120 59.9999C120 26.8626 93.1367 0 59.9999 0ZM43.9919 89.0071H30.8183V46.447H43.9919V89.0071ZM37.3423 40.8734C33.0399 40.8734 29.5521 37.3572 29.5521 33.0204C29.5521 28.6831 33.0404 25.1671 37.3423 25.1671C41.6442 25.1671 45.132 28.6831 45.132 33.0204C45.1322 37.3574 41.6444 40.8734 37.3423 40.8734V40.8734ZM93.3598 89.0071H80.2501V66.6666C80.2501 60.5392 77.9227 57.1189 73.0776 57.1189C67.8046 57.1189 65.0498 60.6811 65.0498 66.6666V89.0071H52.4149V46.447H65.0498V52.1791C65.0498 52.1791 68.8504 45.1488 77.875 45.1488C86.8997 45.1488 93.3601 50.6592 93.3601 62.0586L93.3598 89.0071V89.0071Z"/></g><defs><linearGradient id="paint0_linear" x1="17.574" x2="102.426" y1="17.573" y2="102.426" gradientUnits="userSpaceOnUse"><stop stop-color="#0A5C4A"/><stop offset=".99" stop-color="#0A5C4A"/></linearGradient><clipPath id="clip0"><rect width="120" height="120" fill="#fff"/></clipPath></defs></svg>