<svg width="60" height="60" viewBox="0 0 60 60" fill="none" xmlns="http://www.w3.org/2000/svg">
<g clip-path="url(#clip0)">
<path d="M60 30C60 22.0435 56.8395 14.413 51.2134 8.78693C45.5873 3.16083 37.9565 0 30 0C22.0435 0 14.413 3.16083 8.78693 8.78693C3.16083 14.413 0 22.0435 0 30C0 37.9565 3.16083 45.5873 8.78693 51.2134C14.413 56.8395 22.0435 60 30 60C37.9565 60 45.5873 56.8395 51.2134 51.2134C56.8395 45.5873 60 37.9565 60 30V30Z" fill="#0A5C4A"/>
<path fill-rule="evenodd" clip-rule="evenodd" d="M25.2081 24.0635C22.1415 24.0635 19.658 26.5427 19.6246 29.6131L20.3986 29.8646C20.8246 30.0032 21.2722 30.0742 21.7218 30.0742H38.2794C38.729 30.0742 39.1767 30.0032 39.6027 29.8646L40.3766 29.6131C40.3428 26.543 37.8593 24.0635 34.7931 24.0635H33.548C33.6216 24.3101 33.606 24.5749 33.5037 24.8112C33.4015 25.0474 33.2192 25.2399 32.9889 25.355L31.441 26.1292L30.6671 27.6771C30.5764 27.8591 30.4366 28.0122 30.2637 28.1193C30.0907 28.2263 29.8915 28.2828 29.6881 28.2828C29.4847 28.2828 29.2855 28.2263 29.1125 28.1193C28.9396 28.0122 28.7998 27.8591 28.7091 27.6771L27.9352 26.1292L26.3873 25.355C26.1571 25.2399 25.9748 25.0474 25.8725 24.8112C25.7702 24.5749 25.7546 24.3101 25.8282 24.0635H25.2081ZM18.4552 30.5479L18.4189 30.5756C17.1628 31.5212 16.4243 33.006 16.4243 34.582V37.7677C16.8058 38.7531 17.801 39.4697 19.0097 39.4697H40.9946C42.2036 39.4697 43.1967 38.7532 43.5776 37.7677V34.582C43.5776 33.006 42.8389 31.5212 41.5829 30.5756L41.5466 30.5479L39.989 31.0532C39.438 31.2317 38.8604 31.3242 38.28 31.3242H21.7224C21.1419 31.3242 20.5649 31.2317 20.0137 31.0532L18.4552 30.5479ZM21.2164 34.0833C21.4262 34.0834 21.6339 34.1247 21.8277 34.2054C22.0215 34.286 22.1976 34.4043 22.3459 34.5533C22.4942 34.7022 22.6115 34.879 22.6917 35.0736C22.7718 35.2682 22.8132 35.4768 22.8131 35.6873C22.8132 35.8979 22.7718 36.1065 22.6917 36.301C22.6115 36.4956 22.4942 36.6724 22.3459 36.8214C22.1976 36.9703 22.0215 37.0883 21.8277 37.1689C21.6339 37.2496 21.4262 37.2913 21.2164 37.2913C21.0067 37.2912 20.7989 37.2496 20.6052 37.1689C20.4114 37.0883 20.2352 36.97 20.087 36.821C19.9387 36.6721 19.8214 36.4953 19.7412 36.3007C19.661 36.1062 19.6197 35.8979 19.6198 35.6873C19.6197 35.4768 19.661 35.2682 19.7412 35.0736C19.8214 34.879 19.9387 34.7022 20.087 34.5533C20.2352 34.4043 20.4114 34.286 20.6052 34.2054C20.7989 34.1247 21.0067 34.0834 21.2164 34.0833ZM26.0065 34.0833H33.9948L33.194 37.2913H26.8073L26.0065 34.0833ZM38.7848 34.0833C38.9946 34.0834 39.2023 34.1247 39.3961 34.2054C39.5898 34.286 39.766 34.4043 39.9142 34.5533C40.0625 34.7022 40.1801 34.879 40.2603 35.0736C40.3405 35.2682 40.3816 35.4768 40.3815 35.6873C40.3816 35.8979 40.3405 36.1065 40.2603 36.301C40.1801 36.4956 40.0625 36.6724 39.9142 36.8214C39.766 36.9703 39.5898 37.0883 39.3961 37.1689C39.2023 37.2496 38.9946 37.2913 38.7848 37.2913C38.575 37.2912 38.3673 37.2496 38.1735 37.1689C37.9798 37.0883 37.8036 36.97 37.6553 36.821C37.5071 36.6721 37.3898 36.4953 37.3096 36.3007C37.2294 36.1062 37.188 35.8979 37.1881 35.6873C37.188 35.4768 37.2294 35.2682 37.3096 35.0736C37.3898 34.879 37.5071 34.7022 37.6553 34.5533C37.8036 34.4043 37.9798 34.286 38.1735 34.2054C38.3673 34.1247 38.575 34.0834 38.7848 34.0833ZM16.4801 39.8328C16.7365 41.3459 18.0394 42.501 19.6198 42.501H40.3815C41.9611 42.501 43.2639 41.3468 43.5211 39.835C42.8266 40.3802 41.952 40.7215 40.9943 40.7215H19.0094C18.0506 40.7215 17.1755 40.3793 16.4801 39.8328Z" fill="white"/>
<path fill-rule="evenodd" clip-rule="evenodd" d="M19.6878 42.1875V45.7614C19.6878 46.2038 20.0453 46.5625 20.4865 46.5625H22.0837C22.5249 46.5625 22.8824 46.204 22.8824 45.7614V42.1875" fill="white"/>
<path fill-rule="evenodd" clip-rule="evenodd" d="M37.1878 42.1875V45.7614C37.1878 46.204 37.5453 46.5625 37.9865 46.5625H39.5837C40.0249 46.5625 40.3824 46.2038 40.3824 45.7614V42.1875" fill="white"/>
<path fill-rule="evenodd" clip-rule="evenodd" d="M17.2217 28.0713C16.3396 28.0713 15.625 28.7874 15.625 29.6729V30.4761C15.625 30.8796 15.9269 31.199 16.3135 31.2549C16.6967 30.6638 17.1846 30.1363 17.7612 29.7021L18.6548 29.0283C18.6873 28.6997 18.7622 28.3849 18.8403 28.0713H17.2217Z" fill="white"/>
<path fill-rule="evenodd" clip-rule="evenodd" d="M41.1597 28.0713C41.2372 28.385 41.3121 28.6997 41.3452 29.0283L42.2388 29.7021C42.8153 30.1363 43.3033 30.6638 43.6865 31.2549C44.0731 31.1986 44.375 30.8796 44.375 30.4761V29.6729C44.375 28.7874 43.6604 28.0713 42.7783 28.0713H41.1597Z" fill="white"/>
<path fill-rule="evenodd" clip-rule="evenodd" d="M32.5003 24.375L30.6253 23.4375L29.6878 21.5625L28.7503 23.4375L26.8753 24.375L28.7503 25.3125L29.6878 27.1875L30.6253 25.3125L32.5003 24.375Z" fill="white"/>
<path fill-rule="evenodd" clip-rule="evenodd" d="M43.7503 20.625L41.8753 19.6875L40.9378 17.8125L40.0003 19.6875L38.1253 20.625L40.0003 21.5625L40.9378 23.4375L41.8753 21.5625L43.7503 20.625Z" fill="white"/>
<path d="M32.1875 15.9375C32.1875 16.269 32.3193 16.5869 32.5537 16.8213C32.7881 17.0557 33.106 17.1875 33.4375 17.1875C33.769 17.1875 34.0869 17.0557 34.3213 16.8213C34.5557 16.5869 34.6875 16.269 34.6875 15.9375C34.6875 15.606 34.5557 15.2881 34.3213 15.0537C34.0869 14.8193 33.769 14.6875 33.4375 14.6875C33.106 14.6875 32.7881 14.8193 32.5537 15.0537C32.3193 15.2881 32.1875 15.606 32.1875 15.9375Z" fill="white"/>
<path fill-rule="evenodd" clip-rule="evenodd" d="M24.3848 17.1959C24.4669 17.1972 24.5478 17.2146 24.6232 17.2471C24.6985 17.2797 24.7669 17.3268 24.824 17.3857C24.8811 17.4446 24.9259 17.5142 24.9561 17.5905C24.9864 17.6668 25.0014 17.7483 25.0001 17.8303V20.3136C25.0012 20.3964 24.9858 20.4784 24.9549 20.5553C24.924 20.6321 24.8782 20.7023 24.82 20.7612C24.7619 20.8202 24.6926 20.8669 24.6162 20.8989C24.5398 20.9308 24.4579 20.9474 24.3751 20.9474C24.2922 20.9474 24.2101 20.9308 24.1337 20.8989C24.0573 20.8669 23.988 20.8202 23.9298 20.7612C23.8717 20.7023 23.8258 20.6321 23.7949 20.5553C23.7641 20.4784 23.7489 20.3964 23.7501 20.3136V17.8303C23.7488 17.7466 23.7641 17.6635 23.7955 17.5859C23.827 17.5083 23.8737 17.4379 23.9329 17.3787C23.9921 17.3195 24.0628 17.2728 24.1404 17.2413C24.218 17.2099 24.3011 17.1946 24.3848 17.1959V17.1959Z" fill="white"/>
<path fill-rule="evenodd" clip-rule="evenodd" d="M25.6152 18.4459C25.6981 18.4447 25.7804 18.4598 25.8572 18.4907C25.9341 18.5216 26.0039 18.5675 26.0629 18.6256C26.1219 18.6838 26.1686 18.7531 26.2006 18.8295C26.2325 18.9059 26.2491 18.988 26.2491 19.0709C26.2491 19.1537 26.2325 19.2355 26.2006 19.312C26.1686 19.3884 26.1219 19.4577 26.0629 19.5158C26.0039 19.574 25.9341 19.6198 25.8572 19.6507C25.7804 19.6816 25.6981 19.697 25.6152 19.6959H23.1348C23.0519 19.697 22.9696 19.6816 22.8928 19.6507C22.8159 19.6198 22.7461 19.574 22.6871 19.5158C22.6281 19.4577 22.5811 19.3884 22.5491 19.312C22.5172 19.2355 22.5009 19.1537 22.5009 19.0709C22.5009 18.988 22.5172 18.9059 22.5491 18.8295C22.5811 18.7531 22.6281 18.6838 22.6871 18.6256C22.7461 18.5675 22.8159 18.5216 22.8928 18.4907C22.9696 18.4598 23.0519 18.4447 23.1348 18.4459H25.6152Z" fill="white"/>
<path d="M18.125 14.6875C18.125 15.019 18.2568 15.3369 18.4912 15.5713C18.7256 15.8057 19.0435 15.9375 19.375 15.9375C19.7065 15.9375 20.0244 15.8057 20.2588 15.5713C20.4932 15.3369 20.625 15.019 20.625 14.6875C20.625 14.356 20.4932 14.0381 20.2588 13.8037C20.0244 13.5693 19.7065 13.4375 19.375 13.4375C19.0435 13.4375 18.7256 13.5693 18.4912 13.8037C18.2568 14.0381 18.125 14.356 18.125 14.6875Z" fill="white"/>
</g>
<defs>
<clipPath id="clip0">
<rect width="60" height="60" fill="white"/>
</clipPath>
</defs>
</svg>
