<svg xmlns="http://www.w3.org/2000/svg" viewBox="0 0 30 30"><path fill="#ff9f0a" d="m 26.579904,13.314444 -6.369637,4.56 2.729952,7.279975 a 0.99999997,0.99999997 0 0 1 -0.939968,1.350009 0.99999997,0.99999997 0 0 1 -0.580158,-0.19011 L 15.000188,21.734324 8.5799045,26.314318 A 0.99999997,0.99999997 0 0 1 7.0601565,25.154305 L 9.7901085,17.874331 3.4200931,13.31433 a 0.99999997,0.99999997 0 0 1 0.5801575,-1.810015 h 7.3099844 l 2.749984,-7.3500095 a 0.99999997,0.99999997 0 0 1 1.879937,0 l 2.749985,7.3500095 h 7.309984 a 0.99999997,0.99999997 0 0 1 0.579779,1.810015 z"/></svg>