<svg width="60" height="60" viewBox="0 0 60 60" fill="none" xmlns="http://www.w3.org/2000/svg">
<path d="M30.0001 1.19971C14.0941 1.19971 1.20007 14.0937 1.20007 29.9997C1.20007 45.9057 14.0941 58.7997 30.0001 58.7997C45.9061 58.7997 58.8001 45.9057 58.8001 29.9997C58.8001 14.0937 45.9061 1.19971 30.0001 1.19971ZM41.7151 24.7917C41.7271 25.0377 41.7301 25.2837 41.7301 25.5237C41.7301 33.0237 36.0271 41.6667 25.5931 41.6667C22.51 41.6718 19.491 40.7863 16.8991 39.1167C17.3401 39.1707 17.7931 39.1917 18.2521 39.1917C20.9101 39.1917 23.3551 38.2887 25.2961 36.7647C24.1132 36.7415 22.9671 36.3498 22.0174 35.6443C21.0677 34.9387 20.3618 33.9545 19.9981 32.8287C20.8475 32.9902 21.7226 32.9564 22.5571 32.7297C21.2732 32.4701 20.1187 31.7744 19.2892 30.7607C18.4597 29.747 18.0064 28.4775 18.0061 27.1677V27.0987C18.7711 27.5217 19.6471 27.7797 20.5771 27.8097C19.3735 27.0085 18.5214 25.7777 18.1952 24.3691C17.869 22.9605 18.0932 21.4805 18.8221 20.2317C20.2469 21.9837 22.0239 23.4169 24.0378 24.4386C26.0517 25.4603 28.2577 26.0477 30.5131 26.1627C30.2263 24.9456 30.3498 23.6679 30.8641 22.5282C31.3785 21.3885 32.2549 20.4507 33.3573 19.8605C34.4596 19.2703 35.7261 19.0609 36.9598 19.2647C38.1934 19.4686 39.3252 20.0743 40.1791 20.9877C41.4486 20.7365 42.666 20.2709 43.7791 19.6107C43.356 20.9251 42.4701 22.0412 41.2861 22.7517C42.4106 22.6163 43.5087 22.3139 44.5441 21.8547C43.7835 22.9944 42.8255 23.989 41.7151 24.7917V24.7917Z" fill="#0A5C4A"/>
</svg>
